<?xml version="1.0" encoding="UTF-8" standalone="no"?>
<!DOCTYPE svg PUBLIC "-//W3C//DTD SVG 1.1//EN" "http://www.w3.org/Graphics/SVG/1.1/DTD/svg11.dtd">
<svg xmlns="http://www.w3.org/2000/svg" version="1.1" viewBox="0.00 0.00 1024.00 1024.00">
<path fill="#ea048b" d="
  M 313.61 410.13
  Q 314.83 409.99 316.30 409.99
  Q 356.95 409.98 399.87 410.10
  Q 412.95 410.14 417.79 408.68
  C 431.11 404.64 438.12 394.07 441.22 380.96
  Q 447.47 354.46 454.31 327.91
  Q 456.90 317.88 459.08 308.52
  C 462.95 291.94 466.90 276.43 470.53 260.11
  Q 474.59 241.83 479.08 221.95
  Q 480.87 214.07 482.57 206.27
  Q 494.74 150.54 506.20 94.75
  Q 508.34 84.31 510.68 74.00
  C 512.15 67.51 512.83 61.07 515.10 54.96
  C 516.06 52.38 519.08 52.03 520.59 54.29
  Q 521.90 56.26 522.30 58.25
  Q 527.11 82.14 532.49 107.60
  Q 536.13 124.85 538.33 135.94
  C 542.88 158.97 547.93 181.94 552.79 204.84
  Q 554.74 214.00 557.16 224.36
  C 561.61 243.44 565.38 261.71 569.99 280.23
  C 572.13 288.81 573.94 297.44 576.06 305.85
  Q 585.56 343.56 594.40 379.66
  C 596.32 387.50 600.23 396.07 605.91 401.51
  Q 610.77 406.16 618.39 408.64
  Q 622.77 410.06 628.98 410.06
  Q 726.42 409.95 828.38 410.01
  Q 835.86 410.01 841.01 414.51
  C 844.73 417.78 846.24 423.76 844.35 428.55
  Q 842.85 432.34 839.02 434.82
  C 813.21 451.52 787.48 468.11 761.63 485.48
  Q 752.60 491.55 744.97 496.58
  Q 713.87 517.10 680.56 539.46
  Q 671.10 545.81 667.52 550.28
  Q 657.36 562.94 661.61 580.18
  C 663.50 587.84 666.39 597.75 668.73 606.93
  Q 672.53 621.84 676.71 636.62
  Q 679.42 646.23 681.93 655.92
  C 685.00 667.80 688.59 679.57 691.19 691.77
  Q 692.06 695.85 692.00 699.89
  Q 691.97 701.56 690.41 701.01
  Q 687.79 700.10 685.28 698.70
  C 672.63 691.66 660.76 684.07 648.39 676.72
  Q 593.68 644.22 543.35 614.13
  C 528.03 604.96 508.59 605.24 493.38 613.33
  Q 487.63 616.38 481.65 619.93
  Q 416.16 658.76 351.99 697.82
  Q 348.81 699.75 345.33 700.85
  A 1.16 1.16 0.0 0 1 343.82 699.72
  Q 343.88 697.05 344.47 694.51
  Q 348.29 678.20 354.69 653.97
  Q 363.07 622.24 370.57 593.48
  Q 372.08 587.66 373.37 581.84
  Q 375.09 574.06 375.04 569.98
  Q 374.90 557.76 365.74 548.48
  C 362.09 544.79 356.97 541.24 352.51 538.33
  Q 336.11 527.60 327.50 521.79
  Q 262.82 478.15 197.30 435.38
  C 193.92 433.18 191.42 430.37 190.82 426.23
  C 188.94 413.11 199.84 410.02 210.25 410.01
  Q 257.02 409.96 309.13 410.04
  Q 310.51 410.05 311.38 410.11
  Q 312.82 410.22 313.61 410.13
  Z"
/>
<path fill="#ea048b" d="
  M 69.76 54.24
  C 75.28 57.17 79.23 65.16 75.54 71.21
  Q 70.49 79.51 60.83 77.81
  C 52.43 76.34 50.81 67.68 52.47 60.64
  Q 52.94 58.63 54.12 57.43
  C 58.09 53.39 64.71 51.56 69.76 54.24
  Z"
/>
<path fill="#ea048b" d="
  M 267.2979 95.6856
  A 16.91 16.54 0.9 0 1 250.1302 111.9580
  A 16.91 16.54 0.9 0 1 233.4821 95.1544
  A 16.91 16.54 0.9 0 1 250.6498 78.8820
  A 16.91 16.54 0.9 0 1 267.2979 95.6856
  Z"
/>
<path fill="#ea048b" d="
  M 803.3727 92.5650
  A 17.07 16.76 -25.3 0 1 795.1025 115.0124
  A 17.07 16.76 -25.3 0 1 772.5073 107.1550
  A 17.07 16.76 -25.3 0 1 780.7775 84.7076
  A 17.07 16.76 -25.3 0 1 803.3727 92.5650
  Z"
/>
<path fill="#ea048b" d="
  M 991.2283 110.3462
  A 11.08 11.08 0.0 0 1 980.7028 121.9542
  L 978.6253 122.0558
  A 11.08 11.08 0.0 0 1 967.0173 111.5303
  L 966.8717 108.5538
  A 11.08 11.08 0.0 0 1 977.3972 96.9458
  L 979.4747 96.8442
  A 11.08 11.08 0.0 0 1 991.0827 107.3697
  L 991.2283 110.3462
  Z"
/>
<path fill="#ea048b" d="
  M 169.97 386.57
  Q 157.90 413.52 151.17 436.95
  Q 144.25 461.07 140.58 485.66
  Q 138.53 499.35 137.45 519.04
  Q 136.84 530.16 137.10 539.00
  Q 139.85 631.45 179.39 709.85
  Q 208.54 767.66 260.19 816.67
  C 266.97 823.11 276.66 830.43 284.30 837.86
  C 287.31 840.78 290.25 844.21 291.73 848.25
  Q 294.74 856.51 291.49 864.48
  C 286.87 875.78 272.50 883.35 260.91 878.84
  Q 255.00 876.54 249.82 872.76
  Q 231.96 859.73 216.02 843.71
  C 205.78 833.42 195.63 823.26 186.21 811.94
  Q 131.33 745.97 106.54 665.03
  Q 96.62 632.64 91.27 596.84
  Q 89.58 585.60 88.57 574.89
  C 87.64 565.05 85.12 557.02 77.88 550.59
  C 71.80 545.20 62.93 545.90 55.22 545.98
  C 43.06 546.11 31.17 537.07 29.31 524.67
  C 27.74 514.25 32.31 505.17 40.80 499.28
  C 48.47 493.94 57.57 495.17 66.28 494.67
  C 70.48 494.43 74.77 493.45 78.30 490.91
  Q 85.16 485.98 87.84 477.90
  C 92.42 464.11 94.31 449.68 98.09 435.68
  Q 105.02 410.03 114.61 385.53
  C 118.37 375.91 123.11 366.02 127.60 356.33
  Q 130.30 350.53 133.34 344.86
  Q 166.47 283.25 216.27 233.81
  C 246.04 204.26 280.63 178.77 317.90 158.67
  Q 361.41 135.21 407.25 121.33
  Q 413.01 119.59 417.60 119.13
  C 426.46 118.24 435.78 122.22 440.55 129.86
  C 444.10 135.54 446.27 141.79 444.46 148.35
  C 440.97 160.95 430.32 166.04 418.69 169.87
  Q 390.15 179.26 365.04 191.21
  Q 351.65 197.58 335.48 206.66
  Q 315.45 217.93 295.78 232.60
  C 242.07 272.66 197.31 325.50 169.97 386.57
  Z"
/>
<path fill="#ea048b" d="
  M 667.85 191.15
  C 648.68 182.27 630.35 175.04 611.12 168.76
  Q 604.67 166.65 600.45 163.64
  C 596.47 160.80 592.27 155.92 590.88 151.02
  C 587.77 140.04 591.89 128.98 601.06 122.91
  C 609.50 117.32 618.47 118.60 627.70 121.65
  C 640.14 125.77 652.06 129.54 664.57 134.64
  Q 688.52 144.40 705.47 152.90
  Q 738.39 169.41 769.35 192.32
  Q 789.61 207.31 804.06 220.24
  Q 814.22 229.33 827.08 242.54
  Q 879.24 296.14 910.90 363.83
  Q 915.15 372.91 918.76 381.92
  Q 928.43 406.05 933.99 425.58
  Q 938.89 442.80 944.39 467.51
  C 946.08 475.06 949.75 485.11 955.95 490.15
  C 962.70 495.63 970.71 495.11 978.99 495.01
  C 986.44 494.91 993.12 497.29 998.26 502.81
  C 1003.13 508.04 1006.93 516.24 1005.31 523.57
  Q 1001.81 539.38 986.42 544.68
  C 979.41 547.09 971.81 545.31 964.57 547.03
  C 953.72 549.61 948.77 559.44 947.48 569.93
  Q 945.71 584.35 943.11 600.46
  Q 934.76 652.13 916.29 698.47
  Q 896.27 748.66 862.08 794.82
  Q 856.01 803.01 849.49 810.78
  Q 799.28 870.57 730.98 909.68
  Q 713.26 919.82 691.12 930.62
  Q 681.06 935.52 670.02 939.83
  Q 650.37 947.50 631.40 953.34
  Q 596.75 964.02 560.36 968.63
  C 552.65 969.61 544.39 972.79 542.25 981.06
  Q 541.09 985.53 540.45 991.21
  Q 539.75 997.35 535.57 1002.76
  C 533.82 1005.01 531.67 1006.31 529.21 1007.58
  Q 517.36 1013.68 506.16 1007.49
  C 497.43 1002.67 495.48 993.74 494.83 984.30
  C 494.26 975.88 487.22 970.53 479.26 969.28
  C 472.10 968.16 465.25 967.47 458.21 966.26
  Q 429.00 961.25 401.46 952.71
  Q 388.74 948.76 375.71 944.32
  C 369.38 942.17 362.14 939.52 357.30 934.96
  Q 347.96 926.18 350.25 912.62
  C 352.24 900.89 363.16 892.95 374.64 892.73
  Q 378.87 892.64 385.89 895.10
  Q 399.95 900.03 412.75 904.01
  Q 445.85 914.28 479.25 918.48
  Q 483.87 919.06 488.55 917.08
  C 493.00 915.19 494.59 910.80 495.10 906.23
  Q 495.57 901.92 495.80 898.02
  C 496.31 889.35 501.15 883.13 509.43 879.75
  Q 520.84 875.09 531.74 881.82
  C 540.30 887.10 540.86 895.86 541.25 904.87
  C 541.67 914.22 548.62 920.26 557.83 918.81
  C 566.57 917.43 575.43 916.13 584.23 914.13
  Q 590.25 912.77 596.20 911.36
  Q 612.49 907.50 632.10 900.57
  Q 649.16 894.55 671.48 884.60
  C 694.12 874.51 715.75 861.60 736.08 847.31
  Q 809.75 795.52 851.97 716.71
  C 860.96 699.93 869.23 681.13 875.15 664.25
  Q 879.67 651.34 885.46 629.11
  Q 888.08 619.07 889.92 609.67
  Q 893.52 591.35 895.55 573.37
  Q 897.95 552.06 897.65 528.10
  Q 897.19 491.43 888.56 454.76
  Q 880.53 420.63 866.93 390.64
  C 856.37 367.37 844.29 345.24 829.46 324.56
  Q 810.87 298.65 788.32 275.87
  Q 783.58 271.08 766.97 256.13
  Q 723.29 216.82 667.85 191.15
  Z"
/>
<path fill="#ea048b" d="
  M 211.47 167.16
  Q 215.91 168.26 220.67 170.85
  Q 223.50 172.38 224.03 175.30
  C 224.66 178.72 219.29 181.98 216.59 183.07
  C 209.26 186.05 203.35 188.49 200.50 196.60
  C 199.29 200.05 197.49 204.14 193.84 205.68
  C 191.34 206.74 188.72 204.60 187.70 202.45
  Q 185.07 196.93 182.44 191.88
  C 179.92 187.07 173.38 184.61 168.42 182.65
  Q 161.27 179.83 163.20 172.81
  A 2.68 2.67 -5.4 0 1 164.59 171.13
  Q 168.21 169.37 172.26 168.11
  C 182.15 165.04 183.66 157.47 187.85 149.42
  C 190.71 143.95 195.92 146.02 198.14 150.46
  C 200.88 155.95 204.72 165.50 211.47 167.16
  Z"
/>
<path fill="#ea048b" d="
  M 833.92 151.63
  C 835.93 146.32 842.80 144.42 845.16 150.53
  C 848.25 158.56 850.98 165.84 860.30 168.19
  C 865.22 169.43 873.31 173.08 868.66 179.46
  Q 867.24 181.40 864.27 182.59
  Q 859.24 184.60 854.87 186.53
  C 849.70 188.83 846.99 196.76 845.10 201.74
  Q 844.13 204.29 841.80 204.95
  Q 837.03 206.31 834.85 201.67
  C 831.50 194.54 829.19 188.26 821.29 185.01
  Q 818.25 183.76 815.15 182.36
  C 812.10 180.99 809.16 177.26 810.91 173.70
  Q 811.90 171.69 813.46 170.78
  C 819.44 167.32 827.81 166.88 830.68 159.43
  C 831.70 156.78 832.92 154.26 833.92 151.63
  Z"
/>
<path fill="#ea048b" d="
  M 422.42 227.34
  C 425.96 228.89 430.90 230.61 431.63 234.98
  A 1.50 1.47 56.5 0 1 431.43 236.00
  C 427.22 242.78 418.55 241.78 414.25 249.09
  Q 412.35 252.32 410.75 255.23
  C 408.67 258.99 403.21 261.10 400.38 256.66
  Q 398.03 252.97 395.85 249.16
  C 393.36 244.81 387.28 242.45 382.87 240.43
  Q 380.75 239.47 379.71 237.62
  C 375.94 230.92 384.97 227.85 389.33 226.30
  C 394.28 224.54 397.48 218.21 399.40 213.73
  C 400.19 211.92 401.72 210.29 403.70 209.90
  Q 408.39 208.98 410.52 214.02
  C 413.37 220.73 416.08 224.58 422.42 227.34
  Z"
/>
<path fill="#ea048b" d="
  M 662.3278 239.9883
  A 21.59 21.26 -5.0 0 1 642.6729 263.0491
  A 21.59 21.26 -5.0 0 1 619.3122 243.7517
  A 21.59 21.26 -5.0 0 1 638.9671 220.6909
  A 21.59 21.26 -5.0 0 1 662.3278 239.9883
  Z"
/>
<path fill="#ea048b" d="
  M 65.3470 282.7253
  A 19.17 18.82 -10.2 0 1 49.8127 304.6426
  A 19.17 18.82 -10.2 0 1 27.6130 289.5147
  A 19.17 18.82 -10.2 0 1 43.1473 267.5974
  A 19.17 18.82 -10.2 0 1 65.3470 282.7253
  Z"
/>
<path fill="#ea048b" d="
  M 1007.24 286.31
  A 18.82 18.82 0.0 0 1 988.42 305.13
  A 18.82 18.82 0.0 0 1 969.60 286.31
  A 18.82 18.82 0.0 0 1 988.42 267.49
  A 18.82 18.82 0.0 0 1 1007.24 286.31
  Z"
/>
<path fill="#ea048b" d="
  M 394.36 291.94
  Q 397.60 292.97 400.16 294.20
  C 404.11 296.11 406.21 302.45 401.12 304.91
  C 392.96 308.86 386.14 310.51 382.07 319.72
  C 380.92 322.31 378.88 327.49 376.38 328.81
  C 373.48 330.34 369.99 327.79 368.77 325.20
  Q 367.12 321.69 365.40 318.22
  Q 362.44 312.27 356.77 309.16
  C 352.17 306.63 347.82 306.62 344.52 301.84
  C 342.82 299.38 344.99 295.97 347.29 294.81
  C 351.11 292.89 355.86 292.08 359.29 289.78
  C 364.39 286.35 366.34 281.02 368.71 275.64
  C 370.53 271.52 376.01 268.04 378.82 273.83
  C 382.54 281.52 385.51 289.15 394.36 291.94
  Z"
/>
<path fill="#ea048b" d="
  M 636.51 337.04
  C 634.22 335.18 632.17 335.20 629.60 334.34
  C 626.89 333.43 624.26 331.89 622.29 329.89
  C 618.99 326.54 621.95 320.98 625.88 319.82
  Q 630.85 318.35 635.15 316.20
  C 640.04 313.76 642.94 307.84 644.82 302.98
  C 646.04 299.84 649.01 291.91 653.87 294.31
  Q 656.04 295.38 657.12 297.34
  C 660.88 304.15 662.38 312.44 670.27 316.04
  C 675.21 318.29 680.62 319.37 684.33 323.80
  Q 684.77 324.33 684.74 325.02
  Q 684.61 327.89 682.83 329.35
  C 679.40 332.15 674.70 334.00 670.44 335.79
  C 662.98 338.92 660.73 346.18 657.59 352.94
  C 656.32 355.67 653.10 358.40 650.09 356.43
  Q 647.58 354.79 646.09 351.92
  C 643.34 346.62 641.22 340.86 636.51 337.04
  Z"
/>
<path fill="#ea048b" d="
  M 703.85 355.72
  C 698.21 352.88 698.97 346.17 704.87 344.06
  C 711.71 341.61 717.81 339.16 720.60 331.67
  C 721.40 329.50 722.65 327.54 723.70 325.49
  C 724.89 323.15 729.06 320.29 731.39 322.91
  C 736.76 328.94 737.57 337.96 745.58 341.37
  Q 749.53 343.05 753.16 344.68
  Q 756.65 346.25 758.06 349.91
  Q 758.28 350.47 757.99 350.99
  C 755.74 355.02 751.19 357.04 746.95 358.61
  C 739.21 361.47 737.10 368.99 732.88 375.17
  Q 731.26 377.53 728.15 378.23
  Q 727.69 378.33 727.27 378.13
  Q 724.38 376.74 722.65 373.76
  C 719.39 368.14 717.20 361.46 710.57 358.77
  Q 707.19 357.41 703.85 355.72
  Z"
/>
<path fill="#ea048b" d="
  M 326.88 344.18
  C 330.47 345.46 333.65 347.22 335.08 350.93
  A 1.27 1.24 50.6 0 1 334.98 352.05
  C 331.05 358.41 323.45 358.37 318.77 363.78
  C 315.63 367.41 314.06 372.27 311.25 376.10
  C 307.63 381.02 303.40 376.81 301.65 373.14
  Q 298.81 367.22 295.46 362.61
  Q 294.78 361.67 292.71 360.29
  C 288.55 357.52 278.15 355.69 281.66 348.61
  Q 282.63 346.66 285.03 345.62
  C 290.56 343.22 295.47 341.74 298.56 335.87
  Q 301.00 331.26 303.18 326.75
  C 304.62 323.79 308.37 322.52 310.76 325.32
  Q 312.72 327.62 313.96 330.21
  C 315.37 333.16 316.17 336.44 318.46 338.84
  Q 321.90 342.42 326.88 344.18
  Z"
/>
<path fill="#ea048b" d="
  M 804.38 551.17
  C 800.60 544.99 795.21 544.30 789.43 541.16
  Q 784.66 538.57 786.51 533.91
  C 787.72 530.83 793.48 529.09 796.78 528.13
  C 801.35 526.81 805.18 521.45 806.74 517.20
  Q 808.16 513.34 810.66 510.00
  C 814.01 505.54 818.41 508.65 820.27 512.26
  C 822.29 516.16 823.76 521.39 827.00 524.28
  Q 830.08 527.02 834.77 528.33
  C 838.07 529.25 842.33 530.91 843.81 534.34
  C 845.42 538.06 840.03 541.61 837.18 542.69
  C 832.60 544.41 828.27 546.38 825.36 550.54
  Q 822.58 554.50 820.30 559.30
  Q 819.61 560.75 818.46 561.91
  C 814.67 565.72 811.28 563.60 809.30 559.83
  Q 807.01 555.47 804.38 551.17
  Z"
/>
<path fill="#ea048b" d="
  M 244.42 629.73
  C 242.92 626.41 239.90 624.61 236.52 623.53
  Q 226.21 620.23 216.45 616.55
  C 211.64 614.74 203.76 608.58 210.18 603.11
  Q 213.16 600.57 216.74 599.25
  Q 226.23 595.77 235.81 592.10
  Q 242.45 589.56 244.68 584.76
  Q 247.94 577.70 250.28 569.76
  C 251.56 565.41 254.80 557.00 259.92 555.95
  Q 265.23 554.87 267.84 559.84
  C 271.18 566.19 273.32 573.18 275.42 580.03
  C 277.96 588.34 284.71 591.81 292.38 594.29
  Q 300.56 596.93 307.44 600.22
  C 310.16 601.52 313.62 603.89 314.10 607.14
  C 314.81 611.95 309.93 614.42 306.28 615.84
  C 298.63 618.83 290.86 621.27 283.47 624.48
  C 279.12 626.38 276.77 629.45 275.24 633.64
  Q 270.12 647.63 268.27 651.66
  C 266.48 655.56 263.63 659.11 258.74 657.62
  Q 256.27 656.86 254.84 654.59
  C 250.06 647.01 247.93 637.54 244.42 629.73
  Z"
/>
<path fill="#ea048b" d="
  M 763.71 632.45
  Q 766.21 626.02 768.02 619.62
  C 768.72 617.16 769.89 614.72 770.84 612.31
  C 772.81 607.34 778.08 602.19 783.31 606.86
  Q 785.95 609.21 787.25 612.37
  Q 790.76 620.90 794.36 632.12
  C 795.74 636.43 798.83 640.43 803.31 642.01
  Q 812.09 645.12 820.28 648.06
  Q 825.27 649.85 829.34 652.43
  C 833.49 655.07 834.68 659.82 830.49 663.13
  Q 826.88 665.98 822.41 667.63
  Q 812.62 671.22 802.10 675.54
  Q 797.68 677.36 795.46 681.33
  C 791.38 688.61 789.81 696.94 786.33 704.50
  C 785.08 707.22 782.83 710.22 779.71 710.69
  C 773.29 711.67 770.38 702.97 768.79 697.88
  Q 765.97 688.81 763.20 682.57
  C 761.07 677.77 754.77 675.02 749.98 673.23
  Q 741.99 670.25 734.05 667.41
  Q 728.34 665.36 725.95 661.51
  C 722.21 655.46 728.24 651.53 733.27 649.61
  C 741.29 646.54 750.23 643.93 757.30 640.58
  Q 761.29 638.69 763.71 632.45
  Z"
/>
<path fill="#ea048b" d="
  M 532.92 704.41
  C 527.33 701.13 520.04 696.89 513.33 698.80
  Q 507.26 700.53 501.80 703.58
  Q 494.00 707.95 485.70 712.91
  Q 414.61 755.44 343.35 796.59
  Q 338.22 799.55 333.03 802.78
  C 328.93 805.32 323.60 807.95 318.82 806.86
  C 315.16 806.02 313.35 800.65 314.29 797.50
  Q 320.62 776.50 326.95 755.51
  C 327.85 752.51 328.46 750.20 331.35 748.41
  C 335.12 746.06 339.00 744.01 342.78 741.75
  Q 418.51 696.41 494.62 650.81
  Q 504.22 645.06 508.50 643.80
  Q 515.75 641.67 524.47 643.51
  Q 529.14 644.49 535.61 648.35
  Q 555.03 659.93 574.99 672.18
  C 587.65 679.95 600.82 687.29 613.77 695.19
  Q 622.14 700.30 630.95 705.46
  Q 667.81 727.08 703.40 748.36
  C 706.16 750.01 707.56 751.76 708.51 754.96
  Q 714.40 774.65 719.81 793.69
  C 720.35 795.56 721.27 799.16 720.97 801.05
  Q 719.93 807.67 713.52 807.63
  Q 710.54 807.62 706.37 805.19
  Q 673.60 786.14 640.39 767.26
  Q 632.12 762.55 623.16 757.18
  Q 612.04 750.51 596.77 741.67
  Q 564.74 723.13 532.92 704.41
  Z"
/>
<path fill="#ea048b" d="
  M 284.5360 724.2014
  A 21.58 21.29 8.8 0 1 259.9529 741.9394
  A 21.58 21.29 8.8 0 1 241.8840 717.5986
  A 21.58 21.29 8.8 0 1 266.4671 699.8606
  A 21.58 21.29 8.8 0 1 284.5360 724.2014
  Z"
/>
<path fill="#ea048b" d="
  M 71.29 728.34
  A 12.59 12.59 0.0 0 1 58.70 740.93
  A 12.59 12.59 0.0 0 1 46.11 728.34
  A 12.59 12.59 0.0 0 1 58.70 715.75
  A 12.59 12.59 0.0 0 1 71.29 728.34
  Z"
/>
<path fill="#ea048b" d="
  M 495.70 808.99
  Q 488.51 806.51 480.09 803.80
  C 475.52 802.33 465.40 798.76 465.00 792.91
  Q 464.69 788.32 469.19 785.91
  Q 474.47 783.08 480.25 781.26
  C 486.37 779.34 492.34 777.76 498.17 774.44
  C 501.96 772.27 505.03 761.81 506.48 757.27
  Q 509.24 748.62 512.17 743.96
  C 514.62 740.08 520.17 739.91 523.35 743.37
  Q 525.83 746.07 526.90 749.32
  Q 529.12 756.00 531.09 762.69
  C 533.30 770.22 536.18 774.56 543.41 777.19
  Q 552.80 780.60 562.64 784.32
  Q 567.36 786.11 570.06 789.98
  C 573.89 795.49 564.67 799.87 560.99 801.21
  Q 551.38 804.73 541.39 808.14
  C 537.35 809.53 534.10 811.87 532.64 816.18
  Q 529.95 824.10 527.47 831.86
  C 526.19 835.85 523.46 842.39 518.59 842.50
  Q 513.16 842.61 510.82 837.62
  Q 506.94 829.34 503.66 819.39
  C 502.34 815.40 499.84 810.41 495.70 808.99
  Z"
/>
<path fill="#ea048b" d="
  M 977.9791 812.9895
  A 12.98 12.68 92.3 0 1 965.8302 799.5111
  A 12.98 12.68 92.3 0 1 979.0209 787.0505
  A 12.98 12.68 92.3 0 1 991.1698 800.5289
  A 12.98 12.68 92.3 0 1 977.9791 812.9895
  Z"
/>
<path fill="#ea048b" d="
  M 417.38 826.36
  A 21.37 21.37 0.0 0 1 396.01 847.73
  A 21.37 21.37 0.0 0 1 374.64 826.36
  A 21.37 21.37 0.0 0 1 396.01 804.99
  A 21.37 21.37 0.0 0 1 417.38 826.36
  Z"
/>
<path fill="#ea048b" d="
  M 661.7915 821.6536
  A 21.66 21.37 -13.5 0 1 645.7187 847.4895
  A 21.66 21.37 -13.5 0 1 619.6685 831.7664
  A 21.66 21.37 -13.5 0 1 635.7413 805.9305
  A 21.66 21.37 -13.5 0 1 661.7915 821.6536
  Z"
/>
<path fill="#ea048b" d="
  M 306.15 957.99
  Q 302.28 967.29 293.15 967.16
  Q 288.99 967.10 286.45 964.98
  C 283.96 962.89 281.40 960.31 280.99 956.91
  C 280.36 951.78 281.95 945.74 286.80 943.27
  Q 297.64 937.77 304.69 947.52
  Q 308.38 952.63 306.15 957.99
  Z"
/>
<path fill="#ea048b" d="
  M 755.1976 955.3310
  A 11.46 11.46 0.0 0 1 744.0826 967.1259
  L 741.4838 967.2030
  A 11.46 11.46 0.0 0 1 729.6888 956.0880
  L 729.6224 953.8490
  A 11.46 11.46 0.0 0 1 740.7374 942.0541
  L 743.3362 941.9770
  A 11.46 11.46 0.0 0 1 755.1312 953.0920
  L 755.1976 955.3310
  Z"
/>
</svg>
